<svg xmlns="http://www.w3.org/2000/svg" viewBox="0 0 1000 1000"><ellipse fill="#FFF" cx="500.3" cy="495.8" rx="451.5" ry="456.5"/><g fill="#7B3376"><path d="M324.1 391.8c-51.2 0-76.7 47.4-76.7 142.3 0 96.2 24.7 144.3 74.1 144.3 29.3 0 51.8-18.1 67.5-54.4 11.8-27.5 17.7-58.4 17.7-92.5 0-35-5.2-64.9-15.7-89.9-14.5-33.1-36.8-49.8-66.9-49.8z"/><path d="M998.1 486c-12.6-9.8-21.5-24.4-23.5-41.5-2-17.3 3.4-33.8 13.7-46.3-3.8-18.4-8.6-36.4-14.3-54.1-22.6-6.9-40.2-26.6-43.1-51.6-1.4-12.2.9-24 6-34.3-8.3-15.2-17.5-29.8-27.3-43.9-31.2.5-58.2-22.7-61.9-54.3-.7-6.3-.5-12.4.6-18.3-12.1-11.8-24.7-23-37.9-33.5-1.9.4-3.8.7-5.7 1-32.2 3.8-61.5-18.2-67.4-49.6-13-7.1-26.4-13.5-40.1-19.4-7 4-14.9 6.7-23.3 7.7-27.3 3.2-52.5-12.1-63.2-35.9-15-3.4-30.3-6.2-45.7-8.2-9.6 10.1-22.5 17-37.4 18.7-21.7 2.5-42-6.6-54.9-22.4-15.5.8-30.8 2.4-45.9 4.6-8 14.5-21.7 25.7-39 29.9-17.5 4.3-35 .6-48.9-8.7-17.2 5.8-34 12.6-50.3 20.2-3.5 24-21.1 44.6-46.1 50.8-12.5 3.1-25.1 2.1-36.3-2.2-13.5 9.8-26.5 20.3-39 31.4 5.3 31.4-14.4 62.1-45.9 69.8-6.7 1.7-13.5 2.1-20 1.5-9.8 12.9-19 26.3-27.5 40.2.9 2.4 1.7 4.8 2.4 7.3 7.9 32-11 64.3-42.4 73.5-6.2 16.1-11.7 32.5-16.2 49.4 6.5 7.3 11.4 16.2 13.9 26.4 6.8 27.5-6.2 55.2-29.9 68.3-1 11.8-1.6 23.8-1.6 36 0 1.2.1 2.4.1 3.6 11 8.2 19.3 20.1 22.8 34.5 5 20.5-.9 41.1-14 55.7 3.6 19.1 8.3 37.8 14 56.1 14.1 6.6 25.7 18.5 31.5 34.2 5.3 14.3 5 29.4 0 42.7 8.6 16.8 18 33 28.4 48.7 24.4.6 47.1 15.7 56.1 39.9 4.1 10.9 4.8 22.3 2.7 33 11.6 11.9 23.8 23.2 36.5 33.9h.1c31.8-11.9 67.2 4.3 79 36.1a62.4 62.4 0 0 1 3.8 20.6c13.6 7.4 27.6 14.1 41.9 20.2 4.3-3 9-5.6 14.1-7.6 31.8-11.8 67.2 4.3 79 36.1l.3.9c18.7 3.9 37.7 6.7 57.1 8.5 11.2-14.5 28.8-23.9 48.6-23.9 19.6 0 37 9.2 48.2 23.5 16.8-1.7 33.4-4.3 49.6-7.6 8.2-24.2 31.1-41.7 58.1-41.7 13.7 0 26.3 4.5 36.5 12.1 14.9-6.3 29.4-13.4 43.5-21.1 1.6-32.5 28.4-58.4 61.3-58.4 6.8 0 13.4 1.2 19.6 3.2 12.7-10.6 24.8-21.8 36.3-33.5-.2-2.2-.4-4.3-.4-6.5 0-32.1 24.7-58.5 56.1-61.2 8.7-12.7 16.8-25.8 24.3-39.3-2.7-7-4.3-14.5-4.3-22.4 0-26.4 16.7-48.8 40-57.5 4.3-12.6 8.3-25.3 11.7-38.4-6.8-9.9-10.8-21.9-10.8-34.8 0-20.1 9.7-38 24.7-49.2 1.1-13.4 1.8-26.8 1.8-40.5.2-4.1 0-8.2-.1-12.4zM491.5 57.6l.1 4.5c-4.5.1-8.9.2-13.4.5L478 58c4.4-.2 8.9-.3 13.5-.4zm-27 1.3l.3 4.5c-4.4.4-8.9.8-13.3 1.3l-.5-4.5c4.5-.5 9-1 13.5-1.3zm-26.9 2.9l.6 4.4c-4.4.6-8.8 1.3-13.2 2.1l-.8-4.4c4.5-.7 8.9-1.4 13.4-2.1zM411 66.4l.9 4.4c-4.4.9-8.7 1.9-13.1 2.9l-1-4.4c4.4-1 8.8-2 13.2-2.9zm-26.3 6.2l1.2 4.3c-4.3 1.2-8.6 2.4-12.8 3.7l-1.3-4.3c4.2-1.2 8.6-2.5 12.9-3.7zm-25.8 7.9l1.4 4.2c-4.2 1.4-8.4 2.9-12.6 4.5l-1.6-4.2c4.3-1.6 8.5-3.1 12.8-4.5zm-25.3 9.4l1.7 4.2c-4.1 1.7-8.2 3.4-12.3 5.2l-1.8-4.1c4.1-1.8 8.2-3.6 12.4-5.3zm-24.7 10.9l1.9 4c-4 1.9-8 3.9-11.9 6l-2.1-4c4.1-2 8.1-4 12.1-6zM285 113.2l2.2 3.9c-3.9 2.2-7.7 4.4-11.5 6.7l-2.3-3.8c3.8-2.3 7.7-4.6 11.6-6.8zm-23.1 13.9l2.4 3.8c-3.7 2.4-7.4 4.9-11.1 7.4l-2.5-3.7c3.7-2.6 7.4-5.1 11.2-7.5zm-22.2 15.3l2.7 3.6c-3.6 2.6-7.1 5.3-10.6 8.1l-2.8-3.5c3.5-2.8 7-5.6 10.7-8.2zM218.4 159l2.9 3.4c-3.4 2.8-6.8 5.7-10.1 8.7l-3-3.4c3.3-2.9 6.7-5.8 10.2-8.7zm-20.2 17.9l3.1 3.3c-3.2 3.1-6.5 6.2-9.6 9.3l-3.2-3.2c3.2-3.2 6.4-6.3 9.7-9.4zM82.3 357.1l4.3 1.4c-1.4 4.2-2.8 8.5-4.1 12.8l-4.3-1.3c1.3-4.4 2.7-8.7 4.1-12.9zM74.5 383l4.3 1.2c-1.2 4.3-2.3 8.6-3.3 13l-4.4-1c1.1-4.5 2.2-8.9 3.4-13.2zm-6.2 26.3l4.4.9c-.9 4.4-1.7 8.7-2.5 13.1l-4.4-.8c.7-4.4 1.5-8.9 2.5-13.2zm-4.6 26.6l4.4.6c-.6 4.4-1.2 8.8-1.7 13.3l-4.5-.5c.6-4.5 1.1-9 1.8-13.4zm-3 26.8l4.5.4c-.3 4.4-.6 8.9-.8 13.3l-4.5-.2c.2-4.5.5-9 .8-13.5zm-1.3 35c0-2.7 0-5.4.1-8.1l4.5.1c0 2.7-.1 5.3-.1 8v5.4l-4.5.1v-5.5zm.3 19l4.5-.2c.2 4.5.5 8.9.8 13.4l-4.5.3c-.3-4.5-.6-9-.8-13.5zm2 26.9l4.5-.5c.5 4.4 1 8.9 1.6 13.3l-4.4.6c-.7-4.4-1.2-8.9-1.7-13.4zm3.6 26.8l4.4-.7c.7 4.4 1.5 8.8 2.4 13.2l-4.4.9c-.8-4.5-1.6-9-2.4-13.4zm5.3 26.5l4.4-1c1 4.4 2.1 8.7 3.2 13l-4.3 1.1c-1.3-4.3-2.3-8.7-3.3-13.1zm10.9 39c-1.4-4.3-2.8-8.6-4-12.9l4.3-1.3c1.3 4.3 2.6 8.5 4 12.8l-4.3 1.4zm9.2 25.4c-1.7-4.2-3.3-8.4-4.8-12.6l4.2-1.5c1.5 4.2 3.1 8.4 4.8 12.5l-4.2 1.6zm.3-315.4l-4.2-1.6c1.6-4.2 3.2-8.4 4.9-12.6l4.2 1.7c-1.7 4.1-3.3 8.3-4.9 12.5zM101.5 686c-1.9-4-3.8-8.1-5.6-12.3l4.1-1.8c1.8 4.1 3.6 8.1 5.5 12.1l-4 2zm-.3-365l-4.1-1.8c1.8-4.1 3.7-8.2 5.7-12.3l4 2c-2 4-3.8 8-5.6 12.1zm12.6 388.9c-2.2-3.9-4.3-7.9-6.3-11.9l4-2c2 4 4.1 7.9 6.3 11.8l-4 2.1zm-1-413l-4-2.1c2.1-4 4.2-8 6.4-11.9l3.9 2.2c-2.1 3.9-4.3 7.8-6.3 11.8zm14.7 436.2c-2.4-3.8-4.8-7.6-7-11.5l3.9-2.3c2.3 3.8 4.6 7.6 7 11.4l-3.9 2.4zm-1.6-459.6l-3.8-2.3c2.3-3.9 4.7-7.7 7.1-11.5l3.8 2.4c-2.5 3.8-4.8 7.6-7.1 11.4zm16.7 482c-2.6-3.6-5.2-7.3-7.7-11.1l3.7-2.5c2.5 3.7 5.1 7.3 7.7 10.9l-3.7 2.7zM140.3 251l-3.7-2.5c2.6-3.7 5.2-7.4 7.8-11l3.6 2.7c-2.5 3.5-5.1 7.1-7.7 10.8zm18.8 525.8c-2.9-3.5-5.7-7-8.4-10.6l3.6-2.7c2.7 3.5 5.5 7 8.3 10.4l-3.5 2.9zm-2.9-547.3l-3.5-2.8c2.8-3.6 5.6-7 8.5-10.5l3.4 2.9c-2.9 3.4-5.7 6.8-8.4 10.4zm20.7 567.7c-3.1-3.3-6.1-6.6-9-10l3.4-3c2.9 3.4 5.9 6.7 9 9.9l-3.4 3.1zm-3.6-588.3l-3.3-3c3-3.4 6-6.7 9.1-10l3.3 3.1c-3.1 3.3-6.1 6.6-9.1 9.9zm22.5 607.5c-3.3-3.1-6.5-6.3-9.6-9.5l3.2-3.1c3.1 3.2 6.3 6.3 9.5 9.4l-3.1 3.2zm20.1 18c-3.4-2.9-6.8-5.9-10.2-8.9l3-3.3c3.3 3 6.7 5.9 10.1 8.8l-2.9 3.4zm21.2 16.8c-3.6-2.7-7.2-5.4-10.7-8.2l2.8-3.5c3.5 2.8 7 5.5 10.6 8.2l-2.7 3.5zm22.2 15.5c-3.8-2.5-7.5-5-11.2-7.6l2.6-3.7c3.7 2.5 7.3 5 11.1 7.5l-2.5 3.8zm23.1 14.1c-3.9-2.2-7.8-4.5-11.7-6.9l2.3-3.8c3.8 2.3 7.7 4.6 11.5 6.8l-2.1 3.9zm23.9 12.6c-4.1-2-8.1-4-12.1-6.1l2.1-4c3.9 2.1 7.9 4.1 11.9 6.1l-1.9 4zm24.7 11.2c-4.2-1.7-8.3-3.5-12.4-5.4l1.8-4.1c4.1 1.8 8.2 3.6 12.3 5.3l-1.7 4.2zm25.3 9.6c-4.3-1.5-8.5-3-12.7-4.6l1.6-4.2c4.2 1.6 8.4 3.1 12.6 4.6l-1.5 4.2zm25.9 8c-4.3-1.2-8.7-2.5-13-3.8l1.3-4.3c4.3 1.3 8.5 2.6 12.8 3.8l-1.1 4.3zm26.2 6.3c-4.4-.9-8.8-1.9-13.2-3l1.1-4.3c4.3 1 8.7 2 13 3l-.9 4.3zm26.6 4.8c-4.5-.7-8.9-1.4-13.3-2.2l.8-4.4c4.4.8 8.8 1.5 13.2 2.1l-.7 4.5zm26.8 3.1c-4.5-.4-9-.8-13.4-1.3l.5-4.5c4.4.5 8.9 1 13.3 1.3l-.4 4.5zm27 1.5c-4.5-.1-9-.3-13.5-.5l.2-4.5c4.4.2 8.9.4 13.4.5l-.1 4.5zm13-251.6c-15.3 1.3-30.8 2.6-46.6 3.9-17.9 1.7-33 4.6-45.3 8.5V626h-2.6c-19.7 48.5-52.5 72.8-98.4 72.8-39.8 0-71.5-18.1-95.1-54.4-20.1-31-30.2-67.5-30.2-109.5 0-40.7 10.9-77.8 32.8-111.5 25.4-38 57.3-57.1 95.7-57.1 21 0 40 6.7 57.1 20 17 13.3 29.3 30.3 36.7 50.8h3.3V282.5c0-20.2-6.6-33.3-19.7-39.5-8.3-3.9-24-5.9-47.2-5.9v-23.6c21.4-.9 53.1-2.8 95.1-5.9 5.2-.9 12.9-2 23-3.3v437.4c0 15.7 13.8 23.6 41.3 23.6v21zm277.3-528.7c3.5 2.9 6.9 5.8 10.3 8.7l-3 3.4-10.2-8.7 2.9-3.4zm-21.4-16.5c3.7 2.6 7.3 5.3 10.8 8.1l-2.7 3.5c-3.5-2.7-7.1-5.4-10.7-8l2.6-3.6zm-22.4-15.2c3.8 2.4 7.6 4.9 11.3 7.4l-2.5 3.7c-3.7-2.5-7.4-5-11.2-7.4l2.4-3.7zM712 112.1c3.9 2.2 7.9 4.4 11.7 6.7l-2.3 3.9c-3.8-2.3-7.7-4.5-11.6-6.7l2.2-3.9zm-24.1-12.4c4.1 1.9 8.1 3.9 12.1 6l-2.1 4c-4-2-8-4-12-5.9l2-4.1zm-24.8-10.8c4.2 1.7 8.4 3.4 12.5 5.2l-1.8 4.1c-4.1-1.8-8.2-3.5-12.4-5.2l1.7-4.1zm-25.4-9.3c4.3 1.4 8.6 2.9 12.8 4.4l-1.5 4.2c-4.2-1.5-8.4-3-12.7-4.4l1.4-4.2zm-25.9-7.7c4.4 1.2 8.7 2.4 13 3.6l-1.3 4.3c-4.3-1.3-8.6-2.5-12.9-3.6l1.2-4.3zm-26.3-6c4.4.9 8.8 1.8 13.2 2.8l-1 4.4c-4.3-1-8.7-1.9-13.1-2.8l.9-4.4zm-26.7-4.4c4.5.6 8.9 1.3 13.4 2l-.7 4.4c-4.4-.7-8.8-1.4-13.2-2l.5-4.4zm-26.9-2.8c4.5.3 9 .7 13.5 1.2l-.5 4.5c-4.4-.5-8.9-.8-13.3-1.2l.3-4.5zM505 57.5c4.5.1 9 .2 13.5.4l-.2 4.5c-4.4-.2-8.9-.3-13.4-.4l.1-4.5zM502.3 938v-4.5c4.5 0 8.9-.1 13.4-.3l.2 4.5c-4.6.2-9.1.3-13.6.3zm27-1l-.3-4.5c4.5-.3 8.9-.7 13.3-1.1l.4 4.5c-4.4.4-8.9.8-13.4 1.1zm26.9-2.6l-.6-4.5c4.4-.6 8.8-1.2 13.2-1.9l.7 4.4c-4.4.8-8.8 1.4-13.3 2zm26.6-4.3l-.8-4.4c4.4-.8 8.8-1.7 13.1-2.7l1 4.4c-4.4 1-8.8 1.9-13.3 2.7zm26.4-5.9l-1.1-4.3c4.3-1.1 8.6-2.3 12.9-3.5l1.2 4.3c-4.3 1.2-8.6 2.4-13 3.5zm25.9-7.5l-1.4-4.3c4.2-1.4 8.5-2.8 12.7-4.3l1.5 4.2c-4.2 1.6-8.5 3-12.8 4.4zm25.5-9.1l-1.6-4.2c4.1-1.6 8.2-3.3 12.3-5.1l1.8 4.1c-4.2 1.9-8.3 3.6-12.5 5.2zm24.7-10.6l-1.9-4.1c4-1.9 8-3.8 12-5.8l2 4c-4 2-8 4-12.1 5.9zm24.1-12.1l-2.1-3.9c3.9-2.1 7.8-4.3 11.6-6.5l2.3 3.9c-3.9 2.1-7.9 4.3-11.8 6.5zm23.3-13.6l-2.4-3.8c3.8-2.4 7.5-4.8 11.2-7.2l2.5 3.7c-3.7 2.4-7.5 4.9-11.3 7.3zm22.4-15l-2.6-3.6c3.6-2.6 7.2-5.2 10.8-7.9l2.7 3.6c-3.6 2.6-7.2 5.3-10.9 7.9zm21.5-16.4l-2.8-3.5c3.5-2.8 6.9-5.7 10.3-8.6l2.9 3.4c-3.5 3-6.9 5.9-10.4 8.7zm20.4-17.6l-3-3.3c3.3-3 6.5-6.1 9.7-9.2l3.1 3.2c-3.2 3.2-6.5 6.3-9.8 9.3zM611.1 589.1c9.9 26.2 28.4 39.4 55.7 39.4 19.3 0 33.1-5.2 41.2-15.6 8.1-10.4 13.1-23.9 14.8-40.5H807c-1.9 25.1-11 48.8-27.2 71.2-25.9 36.1-64.2 54.1-115 54.1s-88.1-15-112.1-45.1c-23.9-30.1-35.9-69.1-35.9-117.1 0-54.1 13.2-96.2 39.7-126.3 26.5-30.1 63-45.1 109.5-45.1 39.6 0 72 8.9 97.2 26.6 25.2 17.8 40.1 49.1 44.8 94h-84.5c-1.5-11.8-5.5-22.4-11.9-31.8-9.3-12.7-23.7-19.1-43.2-19.1-27.9 0-46.9 13.8-57.1 41.4-5.4 14.6-8.1 34.1-8.1 58.3-.3 23 2.4 41.6 7.9 55.6zM806 187.9c-3.2-3.1-6.4-6.2-9.6-9.2l3-3.3c3.3 3.1 6.6 6.2 9.8 9.3l-3.2 3.2zm10.4 615.6l-3.2-3.1c3.1-3.2 6.1-6.5 9.1-9.8l3.3 3c-3 3.3-6.1 6.6-9.2 9.9zm8-596.2c-3-3.3-6-6.6-9.1-9.8l3.2-3.1c3.1 3.3 6.2 6.6 9.2 9.9l-3.3 3zm10.1 576.2l-3.4-2.9c2.9-3.4 5.7-6.8 8.5-10.3l3.5 2.8c-2.8 3.5-5.7 6.9-8.6 10.4zm7.1-555.8c-2.8-3.5-5.6-6.9-8.4-10.4l3.4-2.9c2.9 3.4 5.7 6.9 8.5 10.5l-3.5 2.8zm97.6 245.7l-4.5.2c-.2-4.5-.6-8.9-.9-13.3l4.5-.4.9 13.5zm-2.3-26.9l-4.4.5c-.5-4.4-1.1-8.9-1.8-13.3l4.4-.7c.7 4.5 1.2 9 1.8 13.5zm-4-26.8l-4.4.8c-.8-4.4-1.6-8.8-2.6-13.1l4.4-.9c1 4.4 1.8 8.8 2.6 13.2zm-5.6-26.4l-4.4 1.1c-1-4.3-2.2-8.6-3.4-12.9l4.3-1.2c1.3 4.3 2.5 8.6 3.5 13zM916 354.4c1.5 4.2 2.9 8.5 4.2 12.8l-4.3 1.3c-1.3-4.3-2.7-8.5-4.2-12.7l4.3-1.4zm-9.6-25.2c1.7 4.1 3.4 8.3 5 12.5l-4.2 1.6c-1.6-4.2-3.2-8.3-4.9-12.4l4.1-1.7zm-55 433.2l-3.6-2.7c2.7-3.6 5.3-7.2 7.9-10.8l3.7 2.6c-2.6 3.7-5.3 7.3-8 10.9zm6.1-513.2c-2.5-3.7-5.1-7.3-7.8-10.8l3.6-2.7c2.7 3.6 5.3 7.3 7.9 11l-3.7 2.5zm9.5 491.1l-3.7-2.5c2.5-3.7 4.9-7.5 7.2-11.3l3.8 2.4c-2.4 3.9-4.8 7.6-7.3 11.4zm5.1-468.7c-2.3-3.8-4.7-7.6-7.1-11.3l3.8-2.4 7.2 11.4-3.9 2.3zm9.2 445.7l-3.9-2.2c2.2-3.9 4.4-7.8 6.5-11.7l3.9 2.1c-2.1 4-4.3 7.9-6.5 11.8zm4-422.5c-2.1-3.9-4.2-7.8-6.4-11.7l3.9-2.2c2.2 3.9 4.4 7.8 6.5 11.8l-4 2.1zm8.7 398.7l-4-2c2-4 3.9-8 5.8-12.1l4.1 1.9c-1.9 4.1-3.9 8.1-5.9 12.2zm3-374.8c-1.8-4-3.7-8.1-5.7-12.1l4-2c2 4 3.9 8.1 5.7 12.2l-4 1.9zm8.3 350.1l-4.1-1.7c1.7-4.1 3.4-8.3 5-12.4l4.2 1.6c-1.6 4.2-3.3 8.4-5.1 12.5zm9.8-25.2l-4.2-1.5c1.5-4.2 2.9-8.5 4.3-12.7l4.3 1.4c-1.5 4.2-2.9 8.5-4.4 12.8zm8.2-25.8l-4.3-1.2c1.2-4.3 2.4-8.6 3.4-12.9l4.4 1.1c-1.2 4.3-2.3 8.7-3.5 13zm6.5-26.2l-4.4-.9c.9-4.3 1.8-8.7 2.6-13.1l4.4.8c-.8 4.4-1.7 8.8-2.6 13.2zm4.9-26.6l-4.4-.7c.7-4.4 1.3-8.8 1.8-13.3l4.4.5c-.5 4.6-1.1 9.1-1.8 13.5zm3.3-26.8l-4.5-.4c.4-4.4.7-8.9 1-13.3l4.5.3c-.3 4.4-.6 8.9-1 13.4zm1.6-26.9l-4.5-.1c.1-4.4.2-8.9.2-13.4 0-3.6 0-7.2-.1-10.8l4.5-.1c.1 3.6.1 7.2.1 10.9 0 4.5-.1 9-.2 13.5z"/></g></svg>