<svg xmlns="http://www.w3.org/2000/svg" viewBox="0 0 1246.5 1242.9" enable-background="new 0 0 1246.5 1242.9"><g fill="#F2F2F2"><path d="M404.6 489.2c-63.9 0-95.8 59.2-95.8 177.7 0 120.1 30.8 180.1 92.5 180.1 36.6 0 64.7-22.6 84.3-68 14.7-34.4 22.1-72.9 22.1-115.5 0-43.7-6.6-81.1-19.7-112.2-17.9-41.3-45.7-62.1-83.4-62.1zM1246.1 606.8c-15.8-12.2-26.8-30.4-29.3-51.8-2.5-21.6 4.3-42.2 17.1-57.8-4.7-23-10.8-45.5-17.9-67.5-28.2-8.6-50.1-33.2-53.8-64.4-1.8-15.3 1.1-30 7.4-42.8-10.4-18.9-21.8-37.2-34.1-54.8-38.9.6-72.7-28.3-77.3-67.8-.9-7.8-.6-15.5.8-22.9-15.1-14.7-30.9-28.7-47.4-41.9-2.3.5-4.7.9-7.1 1.2-40.3 4.7-76.8-22.7-84.2-62-16.2-8.8-33-16.9-50.1-24.3-8.7 5-18.5 8.3-29.1 9.6-34.1 4-65.6-15.1-78.9-44.8-18.7-4.3-37.8-7.7-57.1-10.2-11.9 12.6-28.1 21.2-46.7 23.4-27.1 3.2-52.5-8.3-68.5-28-19.4 1-38.5 3-57.3 5.7-10 18-27.1 32.1-48.7 37.4-21.8 5.4-43.7.7-61-10.9-21.5 7.3-42.5 15.7-62.8 25.2-4.4 30-26.4 55.7-57.6 63.4-15.6 3.8-31.3 2.6-45.3-2.7-16.9 12.3-33.1 25.3-48.7 39.2 6.7 39.2-18 77.6-57.3 87.2-8.4 2.1-16.8 2.6-25 1.9-12.2 16.1-23.7 32.9-34.3 50.2 1.1 3 2.2 6 2.9 9.2 9.8 40-13.8 80.3-52.9 91.8-7.8 20.1-14.6 40.6-20.3 61.6 8.2 9.1 14.3 20.2 17.4 32.9 8.4 34.4-7.8 69-37.3 85.3-1 14.8-1.7 29.8-1.7 45l.1 4.5c13.7 10.3 24 25.1 28.5 43 6.3 25.6-1.1 51.3-17.4 69.5 4.5 23.9 10.3 47.2 17.5 70 17.6 8.2 32.1 23 39.4 42.6 6.7 17.9 6.2 36.7 0 53.3 10.7 21 22.5 41.3 35.4 60.7 30.4.7 58.8 19.6 70.1 49.8 5.1 13.7 6 27.8 3.4 41.2 14.5 14.9 29.7 29 45.5 42.4h.1c39.7-14.8 83.9 5.4 98.7 45.1 3.2 8.5 4.6 17.2 4.8 25.7 17 9.2 34.4 17.6 52.3 25.3 5.3-3.8 11.2-7 17.6-9.4 39.7-14.8 83.9 5.4 98.7 45.1.1.4.2.8.4 1.2 23.3 4.9 47.1 8.4 71.3 10.6 14-18.1 35.9-29.9 60.6-29.9 24.5 0 46.2 11.5 60.2 29.3 21-2.1 41.6-5.3 61.9-9.5 10.3-30.2 38.9-52 72.6-52 17.1 0 32.8 5.7 45.6 15.1 18.6-7.9 36.7-16.7 54.3-26.3 2-40.6 35.4-72.9 76.5-72.9 8.6 0 16.8 1.5 24.4 4 15.8-13.2 30.9-27.2 45.3-41.9-.3-2.7-.4-5.4-.4-8.2 0-40.1 30.8-73 70.1-76.4 10.8-15.8 21-32.2 30.3-49-3.4-8.7-5.4-18.1-5.4-28 0-32.9 20.8-60.9 49.9-71.8 5.4-15.7 10.4-31.6 14.6-47.9-8.5-12.4-13.5-27.3-13.5-43.5 0-25.1 12.2-47.4 30.9-61.4 1.3-16.7 2.2-33.5 2.2-50.5 0-5.1-.3-10.2-.4-15.4zm-632.5-534.9l.1 5.6c-5.6.1-11.1.3-16.7.6l-.3-5.6c5.6-.3 11.3-.5 16.9-.6zm-33.7 1.6l.4 5.6c-5.6.5-11.1 1-16.6 1.6l-.6-5.6c5.6-.6 11.2-1.1 16.8-1.6zm-33.5 3.7l.8 5.5c-5.5.8-11 1.6-16.5 2.6l-.9-5.5c5.5-.9 11-1.8 16.6-2.6zm-33.2 5.7l1.1 5.5c-5.5 1.1-10.9 2.3-16.3 3.6l-1.3-5.5c5.4-1.2 10.9-2.4 16.5-3.6zm-32.9 7.8l1.5 5.4c-5.4 1.5-10.7 3-16 4.6l-1.6-5.3c5.3-1.7 10.7-3.2 16.1-4.7zm-32.2 9.8l1.8 5.3c-5.3 1.8-10.5 3.6-15.7 5.6l-2-5.2c5.2-2.1 10.5-3.9 15.9-5.7zm-31.6 11.7l2.1 5.2c-5.1 2.1-10.2 4.3-15.3 6.5l-2.3-5.1c5.1-2.2 10.3-4.4 15.5-6.6zm-30.8 13.7l2.4 5c-5 2.4-10 4.9-14.9 7.4l-2.6-5c5.1-2.5 10.1-5 15.1-7.4zm-29.8 15.5l2.7 4.9c-4.8 2.7-9.7 5.5-14.4 8.3l-2.9-4.8c4.8-2.9 9.7-5.7 14.6-8.4zm-28.9 17.3l3 4.7c-4.7 3-9.3 6.1-13.9 9.2l-3.1-4.6c4.6-3.2 9.3-6.3 14-9.3zm-27.8 19.1l3.3 4.5c-4.5 3.3-8.9 6.6-13.3 10.1l-3.4-4.4c4.4-3.5 8.9-6.9 13.4-10.2zm-26.5 20.7l3.6 4.3c-4.3 3.6-8.5 7.2-12.7 10.9l-3.7-4.2c4.2-3.8 8.5-7.4 12.8-11zm-25.3 22.3l3.8 4.1c-4.1 3.8-8.1 7.7-12 11.6l-4-4 12.2-11.7zm-144.6 225l5.3 1.8c-1.8 5.3-3.5 10.6-5.1 15.9l-5.4-1.6c1.6-5.4 3.4-10.8 5.2-16.1zm-9.8 32.3l5.4 1.5c-1.5 5.4-2.8 10.8-4.1 16.2l-5.5-1.3c1.3-5.5 2.7-11 4.2-16.4zm-7.8 32.9l5.5 1.1c-1.1 5.5-2.1 10.9-3.1 16.4l-5.5-.9c.9-5.6 2-11.1 3.1-16.6zm-5.7 33.2l5.5.8c-.8 5.5-1.5 11-2.1 16.6l-5.6-.6c.7-5.7 1.4-11.3 2.2-16.8zm-3.7 33.5l5.6.4c-.4 5.5-.8 11.1-1.1 16.7l-5.6-.3c.3-5.6.7-11.2 1.1-16.8zm-1.7 43.8c0-3.4 0-6.7.1-10.1l5.6.1c-.1 3.3-.1 6.6-.1 10v6.7l-5.6.1v-6.8zm.5 23.6l5.6-.2c.2 5.6.6 11.1 1 16.7l-5.6.4c-.4-5.7-.8-11.3-1-16.9zm2.4 33.6l5.6-.6c.6 5.6 1.2 11.1 2 16.6l-5.6.8c-.7-5.6-1.4-11.2-2-16.8zm4.5 33.5l5.5-.9c.9 5.5 1.9 11 3 16.4l-5.5 1.1c-1-5.6-2-11.1-3-16.6zm6.6 33l5.5-1.3c1.3 5.4 2.6 10.8 4 16.2l-5.4 1.4c-1.5-5.3-2.9-10.8-4.1-16.3zm13.6 48.7c-1.8-5.3-3.4-10.7-5-16.1l5.4-1.6c1.6 5.3 3.2 10.7 5 15.9l-5.4 1.8zm11.6 31.7c-2.1-5.2-4.1-10.5-6-15.7l5.3-1.9c1.9 5.2 3.9 10.4 6 15.6l-5.3 2zm.4-393.8l-5.2-1.9c2-5.3 4-10.5 6.1-15.8l5.2 2.1c-2.2 5.2-4.2 10.4-6.1 15.6zm13 424.6c-2.4-5-4.7-10.2-7-15.3l5.1-2.2c2.2 5.1 4.5 10.1 6.9 15.2l-5 2.3zm-.4-455.6l-5.1-2.3c2.3-5.1 4.7-10.3 7.1-15.3l5 2.4c-2.4 5.1-4.7 10.1-7 15.2zm15.7 485.6c-2.7-4.9-5.3-9.9-7.9-14.9l5-2.5c2.5 4.9 5.1 9.9 7.8 14.7l-4.9 2.7zm-1.2-515.7l-5-2.6c2.6-5 5.3-10 8-14.9l4.9 2.7c-2.7 4.9-5.3 9.8-7.9 14.8zm18.4 544.6c-3-4.7-5.9-9.5-8.8-14.4l4.8-2.8c2.8 4.8 5.7 9.5 8.7 14.2l-4.7 3zm-2.1-573.8l-4.8-2.9c2.9-4.8 5.9-9.6 8.9-14.3l4.7 3c-2.9 4.7-5.9 9.4-8.8 14.2zm21 601.7c-3.3-4.5-6.5-9.1-9.7-13.8l4.6-3.1c3.1 4.6 6.3 9.2 9.6 13.7l-4.5 3.2zm-2.9-629.8l-4.6-3.2c3.2-4.6 6.5-9.2 9.8-13.8l4.5 3.3c-3.3 4.6-6.5 9.1-9.7 13.7zm23.4 656.5c-3.6-4.3-7.1-8.7-10.5-13.2l4.4-3.4c3.4 4.4 6.9 8.8 10.4 13l-4.3 3.6zm-3.6-683.4l-4.4-3.5c3.5-4.4 7-8.8 10.6-13.1l4.3 3.6c-3.6 4.3-7.1 8.6-10.5 13zm25.8 708.8c-3.8-4.1-7.6-8.3-11.3-12.5l4.2-3.7c3.7 4.2 7.4 8.3 11.2 12.4l-4.1 3.8zm-4.4-734.5l-4.2-3.7c3.7-4.2 7.5-8.4 11.4-12.5l4.1 3.8c-3.9 4.1-7.6 8.3-11.3 12.4zm28.1 758.5c-4.1-3.9-8.1-7.8-12-11.8l4-3.9c3.9 4 7.9 7.9 11.9 11.7l-3.9 4zm25.1 22.5c-4.3-3.6-8.5-7.3-12.7-11.1l3.7-4.2c4.1 3.7 8.3 7.4 12.6 11l-3.6 4.3zm26.5 21c-4.5-3.4-9-6.8-13.4-10.3l3.5-4.4c4.4 3.5 8.8 6.9 13.2 10.2l-3.3 4.5zm27.6 19.3c-4.7-3.1-9.4-6.2-14-9.4l3.2-4.6c4.6 3.2 9.2 6.3 13.8 9.3l-3 4.7zm28.9 17.6c-4.9-2.8-9.8-5.6-14.6-8.6l2.9-4.8c4.8 2.9 9.6 5.7 14.4 8.5l-2.7 4.9zm29.9 15.8c-5.1-2.5-10.1-5-15.1-7.7l2.6-4.9c4.9 2.6 9.9 5.1 14.9 7.6l-2.4 5zm30.8 13.9c-5.2-2.2-10.4-4.4-15.5-6.7l2.3-5.1c5.1 2.3 10.2 4.5 15.4 6.7l-2.2 5.1zm31.6 11.9c-5.3-1.8-10.7-3.7-15.9-5.7l2-5.2c5.2 2 10.5 3.9 15.7 5.7l-1.8 5.2zm32.3 10.1c-5.4-1.5-10.8-3.1-16.2-4.7l1.7-5.3c5.3 1.6 10.6 3.2 16 4.7l-1.5 5.3zm32.7 7.9c-5.5-1.2-11-2.4-16.4-3.7l1.3-5.4c5.4 1.3 10.8 2.5 16.3 3.7l-1.2 5.4zm33.2 5.9c-5.6-.8-11.1-1.7-16.6-2.7l1-5.5c5.5 1 11 1.9 16.5 2.7l-.9 5.5zm33.5 3.9c-5.6-.5-11.2-1-16.8-1.7l.6-5.6c5.5.6 11.1 1.2 16.6 1.7l-.4 5.6zm33.7 1.9c-5.6-.1-11.3-.4-16.8-.7l.3-5.6c5.5.3 11.1.5 16.7.7l-.2 5.6zm16.2-314.1c-19.1 1.6-38.5 3.3-58.1 4.9-22.4 2.2-41.2 5.7-56.5 10.6v-90.9h-3.3c-24.6 60.6-65.5 90.9-122.8 90.9-49.7 0-89.2-22.6-118.7-68-25.1-38.8-37.7-84.3-37.7-136.7 0-50.8 13.6-97.2 40.9-139.2 31.7-47.5 71.5-71.2 119.5-71.2 26.2 0 49.9 8.3 71.2 25 21.3 16.7 36.6 37.8 45.9 63.5h4.1v-193c0-25.2-8.2-41.6-24.6-49.3-10.4-4.9-30-7.4-59-7.4v-29.5c26.7-1.1 66.3-3.5 118.7-7.4 6.5-1.1 16.1-2.5 28.7-4.1v546.1c0 19.7 17.2 29.5 51.6 29.5v26.2zm346.2-660.1c4.4 3.6 8.6 7.2 12.9 10.9l-3.7 4.2c-4.2-3.7-8.4-7.3-12.7-10.8l3.5-4.3zm-26.7-20.7c4.6 3.3 9.1 6.7 13.5 10.1l-3.4 4.4c-4.4-3.4-8.9-6.7-13.4-10l3.3-4.5zm-28-18.9c4.8 3 9.5 6.1 14.1 9.3l-3.2 4.6c-4.6-3.1-9.2-6.2-14-9.2l3.1-4.7zm-29-17.3c4.9 2.7 9.8 5.5 14.7 8.4l-2.8 4.8c-4.8-2.8-9.6-5.6-14.5-8.3l2.6-4.9zm-30.1-15.4c5.1 2.4 10.1 4.9 15.2 7.5l-2.6 5c-4.9-2.5-9.9-5-15-7.4l2.4-5.1zm-31-13.5c5.2 2.1 10.4 4.3 15.6 6.5l-2.2 5.1c-5.1-2.2-10.3-4.4-15.4-6.5l2-5.1zm-31.7-11.6c5.4 1.8 10.7 3.6 16 5.5l-1.9 5.3c-5.3-1.9-10.5-3.7-15.8-5.5l1.7-5.3zm-32.4-9.6c5.4 1.4 10.9 2.9 16.2 4.5l-1.6 5.4c-5.3-1.6-10.7-3.1-16.1-4.5l1.5-5.4zm-32.8-7.5c5.5 1.1 11 2.3 16.5 3.5l-1.3 5.5c-5.4-1.2-10.9-2.4-16.3-3.5l1.1-5.5zm-33.3-5.6c5.6.7 11.1 1.6 16.7 2.5l-.9 5.5c-5.5-.9-11-1.7-16.5-2.5l.7-5.5zm-33.5-3.4c5.6.4 11.2.9 16.8 1.5l-.6 5.6c-5.5-.6-11.1-1.1-16.6-1.5l.4-5.6zm-33.7-1.5c5.6.1 11.3.2 16.8.5l-.2 5.6c-5.5-.2-11.1-.4-16.7-.5l.1-5.6zm-3.4 1099.3v-5.6c5.6 0 11.1-.2 16.7-.3l.2 5.6c-5.6.2-11.2.3-16.9.3zm33.7-1.2l-.4-5.6c5.6-.4 11.1-.8 16.6-1.4l.5 5.6c-5.4.6-11 1-16.7 1.4zm33.6-3.3l-.7-5.6c5.5-.7 11-1.5 16.5-2.4l.9 5.5c-5.5 1-11.1 1.8-16.7 2.5zm33.3-5.3l-1.1-5.5c5.5-1.1 10.9-2.2 16.4-3.4l1.2 5.5c-5.5 1.2-11 2.3-16.5 3.4zm32.9-7.4l-1.4-5.4c5.4-1.4 10.8-2.9 16.1-4.4l1.6 5.4c-5.4 1.6-10.8 3-16.3 4.4zm32.4-9.3l-1.7-5.3c5.3-1.7 10.6-3.5 15.8-5.4l1.9 5.3c-5.3 1.8-10.6 3.6-16 5.4zm31.8-11.4l-2-5.2c5.2-2 10.3-4.1 15.4-6.3l2.2 5.1c-5.2 2.2-10.4 4.3-15.6 6.4zm30.8-13.3l-2.4-5.1c5-2.4 10-4.8 15-7.3l2.5 5c-4.9 2.6-10 5.1-15.1 7.4zm30.1-15.1l-2.7-4.9c4.9-2.6 9.7-5.4 14.5-8.2l2.8 4.8c-4.8 2.8-9.7 5.6-14.6 8.3zm29.1-17l-3-4.8c4.7-2.9 9.4-6 14-9l3.1 4.6c-4.7 3.2-9.4 6.2-14.1 9.2zm28-18.7l-3.3-4.6c4.5-3.2 9-6.5 13.4-9.9l3.4 4.5c-4.4 3.4-9 6.7-13.5 10zm26.8-20.4l-3.5-4.4c4.3-3.5 8.6-7.1 12.8-10.7l3.6 4.2c-4.3 3.8-8.6 7.4-12.9 10.9zm25.5-22l-3.8-4.1c4.1-3.8 8.1-7.6 12.1-11.5l3.9 4c-4 3.9-8.1 7.8-12.2 11.6zm-232.2-291.1c12.3 32.8 35.5 49.1 69.5 49.1 24.1 0 41.3-6.5 51.4-19.5 10.1-13 16.3-29.9 18.5-50.6h105.1c-2.4 31.3-13.8 60.9-34 88.9-32.3 45-80.2 67.6-143.6 67.6-63.4 0-110.1-18.8-140-56.4-29.9-37.6-44.8-86.3-44.8-146.1 0-67.5 16.5-120.1 49.5-157.7 33-37.6 78.6-56.4 136.7-56.4 49.4 0 89.9 11.1 121.3 33.2 31.5 22.2 50.1 61.3 55.9 117.4h-105.3c-1.9-14.7-6.9-27.9-14.8-39.7-11.6-15.9-29.6-23.8-54-23.8-34.8 0-58.6 17.2-71.3 51.7-6.8 18.3-10.1 42.5-10.1 72.8-.1 28.7 3.3 51.9 10 69.5zm243.4-501c-4-3.9-8-7.8-12-11.5l3.8-4.1c4.1 3.8 8.2 7.7 12.2 11.7l-4 3.9zm12.9 768.6l-4-3.9c3.9-4 7.7-8.1 11.4-12.2l4.1 3.8c-3.7 4.1-7.6 8.2-11.5 12.3zm10.1-744.4c-3.7-4.1-7.5-8.2-11.3-12.3l4.1-3.9c3.9 4.1 7.7 8.2 11.4 12.4l-4.2 3.8zm12.6 719.4l-4.2-3.6c3.6-4.2 7.2-8.5 10.6-12.9l4.4 3.5c-3.6 4.4-7.1 8.7-10.8 13zm8.9-693.9c-3.4-4.4-7-8.7-10.5-12.9l4.3-3.6c3.6 4.3 7.2 8.7 10.6 13.1l-4.4 3.4zm121.8 306.7l-5.6.3c-.3-5.6-.7-11.1-1.2-16.6l5.6-.5c.5 5.6.9 11.2 1.2 16.8zm-2.9-33.6l-5.6.6c-.6-5.6-1.4-11.1-2.2-16.6l5.5-.8c.9 5.7 1.7 11.2 2.3 16.8zm-4.9-33.3l-5.5 1c-1-5.5-2-11-3.2-16.4l5.5-1.2c1.1 5.5 2.2 11 3.2 16.6zm-7-33l-5.4 1.3c-1.3-5.4-2.7-10.8-4.2-16.2l5.4-1.5c1.5 5.5 2.9 10.9 4.2 16.4zm-14.2-48.6c1.8 5.3 3.6 10.6 5.3 16l-5.3 1.7c-1.6-5.3-3.4-10.6-5.2-15.9l5.2-1.8zm-11.9-31.4c2.1 5.2 4.2 10.4 6.2 15.6l-5.2 2c-2-5.2-4-10.3-6.1-15.5l5.1-2.1zm-68.7 540.8l-4.5-3.4c3.4-4.4 6.6-8.9 9.9-13.5l4.6 3.2c-3.3 4.6-6.6 9.2-10 13.7zm7.6-640.8c-3.2-4.6-6.4-9.1-9.7-13.5l4.5-3.3c3.4 4.5 6.6 9.1 9.8 13.7l-4.6 3.1zm11.9 613.2l-4.7-3.1c3.1-4.6 6.1-9.3 9-14.1l4.8 2.9c-3 4.9-6 9.6-9.1 14.3zm6.4-585.3c-2.9-4.8-5.9-9.5-8.9-14.1l4.7-3c3 4.7 6 9.4 9 14.2l-4.8 2.9zm11.4 556.6l-4.9-2.8c2.8-4.8 5.5-9.7 8.1-14.6l4.9 2.6c-2.6 5-5.3 9.9-8.1 14.8zm5-527.6c-2.6-4.9-5.3-9.8-8-14.6l4.9-2.8c2.8 4.9 5.5 9.8 8.1 14.8l-5 2.6zm10.9 497.8l-5-2.5c2.5-5 4.9-10 7.2-15.1l5.1 2.3c-2.3 5.2-4.8 10.2-7.3 15.3zm3.7-467.9c-2.3-5.1-4.6-10.1-7.1-15.1l5-2.5c2.5 5 4.8 10.1 7.2 15.2l-5.1 2.4zm10.4 437.2l-5.2-2.2c2.2-5.1 4.3-10.3 6.3-15.5l5.2 2c-2 5.3-4.1 10.5-6.3 15.7zm12.2-31.6l-5.3-1.9c1.8-5.2 3.6-10.6 5.3-15.9l5.3 1.7c-1.6 5.5-3.4 10.8-5.3 16.1zm10.2-32.2l-5.4-1.5c1.5-5.3 3-10.7 4.3-16.1l5.4 1.4c-1.3 5.4-2.8 10.8-4.3 16.2zm8.2-32.7l-5.5-1.2c1.2-5.4 2.3-10.9 3.3-16.4l5.5 1c-1 5.6-2.1 11.1-3.3 16.6zm6.1-33.1l-5.5-.9c.8-5.5 1.6-11 2.3-16.5l5.6.7c-.8 5.5-1.5 11.1-2.4 16.7zm4.1-33.5l-5.6-.5c.5-5.5.9-11.1 1.3-16.6l5.6.3c-.4 5.6-.8 11.2-1.3 16.8zm2-33.7l-5.6-.2c.2-5.5.3-11.1.3-16.7 0-4.5-.1-9-.2-13.4l5.6-.1c.1 4.5.2 9 .2 13.6 0 5.6-.1 11.2-.3 16.8z"/></g></svg>