<?xml version="1.0" encoding="utf-8"?>
<!-- Generator: Adobe Illustrator 18.0.0, SVG Export Plug-In . SVG Version: 6.00 Build 0)  -->
<!DOCTYPE svg PUBLIC "-//W3C//DTD SVG 1.1//EN" "http://www.w3.org/Graphics/SVG/1.1/DTD/svg11.dtd">
<svg version="1.1" id="Layer_1" xmlns="http://www.w3.org/2000/svg" xmlns:xlink="http://www.w3.org/1999/xlink" x="0px" y="0px"
	 viewBox="0 0 1000 1000" enable-background="new 0 0 1000 1000" xml:space="preserve">
<g>
	<ellipse fill="#FFFFFF" cx="500.3" cy="495.8" rx="451.5" ry="456.5"/>
	<g>
		<path fill="#7B3376" d="M324.1,391.8c-51.2,0-76.7,47.4-76.7,142.3c0,96.2,24.7,144.3,74.1,144.3c29.3,0,51.8-18.1,67.5-54.4
			c11.8-27.5,17.7-58.4,17.7-92.5c0-35-5.2-64.9-15.7-89.9C376.5,408.5,354.2,391.8,324.1,391.8z"/>
		<path fill="#7B3376" d="M998.1,486c-12.6-9.8-21.5-24.4-23.5-41.5c-2-17.3,3.4-33.8,13.7-46.3c-3.8-18.4-8.6-36.4-14.3-54.1
			c-22.6-6.9-40.2-26.6-43.1-51.6c-1.4-12.2,0.9-24,6-34.3c-8.3-15.2-17.5-29.8-27.3-43.9c-31.2,0.5-58.2-22.7-61.9-54.3
			c-0.7-6.3-0.5-12.4,0.6-18.3c-12.1-11.8-24.7-23-37.9-33.5c-1.9,0.4-3.8,0.7-5.7,1c-32.2,3.8-61.5-18.2-67.4-49.6
			c-13-7.1-26.4-13.5-40.1-19.4c-7,4-14.9,6.7-23.3,7.7c-27.3,3.2-52.5-12.1-63.2-35.9c-15-3.4-30.3-6.2-45.7-8.2
			c-9.6,10.1-22.5,17-37.4,18.7c-21.7,2.5-42-6.6-54.9-22.4c-15.5,0.8-30.8,2.4-45.9,4.6c-8,14.5-21.7,25.7-39,29.9
			c-17.5,4.3-35,0.6-48.9-8.7c-17.2,5.8-34,12.6-50.3,20.2c-3.5,24-21.1,44.6-46.1,50.8c-12.5,3.1-25.1,2.1-36.3-2.2
			c-13.5,9.8-26.5,20.3-39,31.4c5.3,31.4-14.4,62.1-45.9,69.8c-6.7,1.7-13.5,2.1-20,1.5c-9.8,12.9-19,26.3-27.5,40.2
			c0.9,2.4,1.7,4.8,2.4,7.3c7.9,32-11,64.3-42.4,73.5c-6.2,16.1-11.7,32.5-16.2,49.4c6.5,7.3,11.4,16.2,13.9,26.4
			c6.8,27.5-6.2,55.2-29.9,68.3C0.6,474.3,0,486.3,0,498.5c0,1.2,0.1,2.4,0.1,3.6c11,8.2,19.3,20.1,22.8,34.5
			c5,20.5-0.9,41.1-14,55.7c3.6,19.1,8.3,37.8,14,56.1c14.1,6.6,25.7,18.5,31.5,34.2c5.3,14.3,5,29.4,0,42.7
			c8.6,16.8,18,33,28.4,48.7c24.4,0.6,47.1,15.7,56.1,39.9c4.1,10.9,4.8,22.3,2.7,33c11.6,11.9,23.8,23.2,36.5,33.9c0,0,0.1,0,0.1,0
			c31.8-11.9,67.2,4.3,79,36.1c2.5,6.8,3.7,13.8,3.8,20.6c13.6,7.4,27.6,14.1,41.9,20.2c4.3-3,9-5.6,14.1-7.6
			c31.8-11.8,67.2,4.3,79,36.1c0.1,0.3,0.2,0.6,0.3,0.9c18.7,3.9,37.7,6.7,57.1,8.5c11.2-14.5,28.8-23.9,48.6-23.9
			c19.6,0,37,9.2,48.2,23.5c16.8-1.7,33.4-4.3,49.6-7.6c8.2-24.2,31.1-41.7,58.1-41.7c13.7,0,26.3,4.5,36.5,12.1
			c14.9-6.3,29.4-13.4,43.5-21.1c1.6-32.5,28.4-58.4,61.3-58.4c6.8,0,13.4,1.2,19.6,3.2c12.7-10.6,24.8-21.8,36.3-33.5
			c-0.2-2.2-0.4-4.3-0.4-6.5c0-32.1,24.7-58.5,56.1-61.2c8.7-12.7,16.8-25.8,24.3-39.3c-2.7-7-4.3-14.5-4.3-22.4
			c0-26.4,16.7-48.8,40-57.5c4.3-12.6,8.3-25.3,11.7-38.4c-6.8-9.9-10.8-21.9-10.8-34.8c0-20.1,9.7-38,24.7-49.2
			c1.1-13.4,1.8-26.8,1.8-40.5C998.4,494.3,998.2,490.2,998.1,486z M491.5,57.6l0.1,4.5c-4.5,0.1-8.9,0.2-13.4,0.5L478,58
			C482.4,57.8,486.9,57.7,491.5,57.6z M464.5,58.9l0.3,4.5c-4.4,0.4-8.9,0.8-13.3,1.3l-0.5-4.5C455.5,59.7,460,59.2,464.5,58.9z
			 M437.6,61.8l0.6,4.4c-4.4,0.6-8.8,1.3-13.2,2.1l-0.8-4.4C428.7,63.2,433.1,62.5,437.6,61.8z M411,66.4l0.9,4.4
			c-4.4,0.9-8.7,1.9-13.1,2.9l-1-4.4C402.2,68.3,406.6,67.3,411,66.4z M384.7,72.6l1.2,4.3c-4.3,1.2-8.6,2.4-12.8,3.7l-1.3-4.3
			C376,75.1,380.4,73.8,384.7,72.6z M358.9,80.5l1.4,4.2c-4.2,1.4-8.4,2.9-12.6,4.5l-1.6-4.2C350.4,83.4,354.6,81.9,358.9,80.5z
			 M333.6,89.9l1.7,4.2c-4.1,1.7-8.2,3.4-12.3,5.2l-1.8-4.1C325.3,93.4,329.4,91.6,333.6,89.9z M308.9,100.8l1.9,4
			c-4,1.9-8,3.9-11.9,6l-2.1-4C300.9,104.8,304.9,102.8,308.9,100.8z M285,113.2l2.2,3.9c-3.9,2.2-7.7,4.4-11.5,6.7l-2.3-3.8
			C277.2,117.7,281.1,115.4,285,113.2z M261.9,127.1l2.4,3.8c-3.7,2.4-7.4,4.9-11.1,7.4l-2.5-3.7C254.4,132,258.1,129.5,261.9,127.1
			z M239.7,142.4l2.7,3.6c-3.6,2.6-7.1,5.3-10.6,8.1l-2.8-3.5C232.5,147.8,236,145,239.7,142.4z M218.4,159l2.9,3.4
			c-3.4,2.8-6.8,5.7-10.1,8.7l-3-3.4C211.5,164.8,214.9,161.9,218.4,159z M198.2,176.9l3.1,3.3c-3.2,3.1-6.5,6.2-9.6,9.3l-3.2-3.2
			C191.7,183.1,194.9,180,198.2,176.9z M82.3,357.1l4.3,1.4c-1.4,4.2-2.8,8.5-4.1,12.8l-4.3-1.3C79.5,365.6,80.9,361.3,82.3,357.1z
			 M74.5,383l4.3,1.2c-1.2,4.3-2.3,8.6-3.3,13l-4.4-1C72.2,391.7,73.3,387.3,74.5,383z M68.3,409.3l4.4,0.9
			c-0.9,4.4-1.7,8.7-2.5,13.1l-4.4-0.8C66.5,418.1,67.3,413.6,68.3,409.3z M63.7,435.9l4.4,0.6c-0.6,4.4-1.2,8.8-1.7,13.3l-4.5-0.5
			C62.5,444.8,63,440.3,63.7,435.9z M60.7,462.7l4.5,0.4c-0.3,4.4-0.6,8.9-0.8,13.3l-4.5-0.2C60.1,471.7,60.4,467.2,60.7,462.7z
			 M59.4,497.7c0-2.7,0-5.4,0.1-8.1l4.5,0.1c0,2.7-0.1,5.3-0.1,8c0,1.8,0,3.6,0,5.4l-4.5,0.1C59.4,501.4,59.4,499.6,59.4,497.7z
			 M59.7,516.7l4.5-0.2c0.2,4.5,0.5,8.9,0.8,13.4l-4.5,0.3C60.2,525.7,59.9,521.2,59.7,516.7z M61.7,543.6l4.5-0.5
			c0.5,4.4,1,8.9,1.6,13.3l-4.4,0.6C62.7,552.6,62.2,548.1,61.7,543.6z M65.3,570.4l4.4-0.7c0.7,4.4,1.5,8.8,2.4,13.2l-4.4,0.9
			C66.9,579.3,66.1,574.8,65.3,570.4z M70.6,596.9l4.4-1c1,4.4,2.1,8.7,3.2,13l-4.3,1.1C72.6,605.7,71.6,601.3,70.6,596.9z
			 M81.5,635.9c-1.4-4.3-2.8-8.6-4-12.9l4.3-1.3c1.3,4.3,2.6,8.5,4,12.8L81.5,635.9z M90.7,661.3c-1.7-4.2-3.3-8.4-4.8-12.6l4.2-1.5
			c1.5,4.2,3.1,8.4,4.8,12.5L90.7,661.3z M91,345.9l-4.2-1.6c1.6-4.2,3.2-8.4,4.9-12.6l4.2,1.7C94.2,337.5,92.6,341.7,91,345.9z
			 M101.5,686c-1.9-4-3.8-8.1-5.6-12.3l4.1-1.8c1.8,4.1,3.6,8.1,5.5,12.1L101.5,686z M101.2,321l-4.1-1.8c1.8-4.1,3.7-8.2,5.7-12.3
			l4,2C104.8,312.9,103,316.9,101.2,321z M113.8,709.9c-2.2-3.9-4.3-7.9-6.3-11.9l4-2c2,4,4.1,7.9,6.3,11.8L113.8,709.9z
			 M112.8,296.9l-4-2.1c2.1-4,4.2-8,6.4-11.9l3.9,2.2C117,289,114.8,292.9,112.8,296.9z M127.5,733.1c-2.4-3.8-4.8-7.6-7-11.5
			l3.9-2.3c2.3,3.8,4.6,7.6,7,11.4L127.5,733.1z M125.9,273.5l-3.8-2.3c2.3-3.9,4.7-7.7,7.1-11.5l3.8,2.4
			C130.5,265.9,128.2,269.7,125.9,273.5z M142.6,755.5c-2.6-3.6-5.2-7.3-7.7-11.1l3.7-2.5c2.5,3.7,5.1,7.3,7.7,10.9L142.6,755.5z
			 M140.3,251l-3.7-2.5c2.6-3.7,5.2-7.4,7.8-11l3.6,2.7C145.5,243.7,142.9,247.3,140.3,251z M159.1,776.8c-2.9-3.5-5.7-7-8.4-10.6
			l3.6-2.7c2.7,3.5,5.5,7,8.3,10.4L159.1,776.8z M156.2,229.5l-3.5-2.8c2.8-3.6,5.6-7,8.5-10.5l3.4,2.9
			C161.7,222.5,158.9,225.9,156.2,229.5z M176.9,797.2c-3.1-3.3-6.1-6.6-9-10l3.4-3c2.9,3.4,5.9,6.7,9,9.9L176.9,797.2z
			 M173.3,208.9l-3.3-3c3-3.4,6-6.7,9.1-10l3.3,3.1C179.3,202.3,176.3,205.6,173.3,208.9z M195.8,816.4c-3.3-3.1-6.5-6.3-9.6-9.5
			l3.2-3.1c3.1,3.2,6.3,6.3,9.5,9.4L195.8,816.4z M215.9,834.4c-3.4-2.9-6.8-5.9-10.2-8.9l3-3.3c3.3,3,6.7,5.9,10.1,8.8L215.9,834.4
			z M237.1,851.2c-3.6-2.7-7.2-5.4-10.7-8.2l2.8-3.5c3.5,2.8,7,5.5,10.6,8.2L237.1,851.2z M259.3,866.7c-3.8-2.5-7.5-5-11.2-7.6
			l2.6-3.7c3.7,2.5,7.3,5,11.1,7.5L259.3,866.7z M282.4,880.8c-3.9-2.2-7.8-4.5-11.7-6.9l2.3-3.8c3.8,2.3,7.7,4.6,11.5,6.8
			L282.4,880.8z M306.3,893.4c-4.1-2-8.1-4-12.1-6.1l2.1-4c3.9,2.1,7.9,4.1,11.9,6.1L306.3,893.4z M331,904.6
			c-4.2-1.7-8.3-3.5-12.4-5.4l1.8-4.1c4.1,1.8,8.2,3.6,12.3,5.3L331,904.6z M356.3,914.2c-4.3-1.5-8.5-3-12.7-4.6l1.6-4.2
			c4.2,1.6,8.4,3.1,12.6,4.6L356.3,914.2z M382.2,922.2c-4.3-1.2-8.7-2.5-13-3.8l1.3-4.3c4.3,1.3,8.5,2.6,12.8,3.8L382.2,922.2z
			 M408.4,928.5c-4.4-0.9-8.8-1.9-13.2-3l1.1-4.3c4.3,1,8.7,2,13,3L408.4,928.5z M435,933.3c-4.5-0.7-8.9-1.4-13.3-2.2l0.8-4.4
			c4.4,0.8,8.8,1.5,13.2,2.1L435,933.3z M461.8,936.4c-4.5-0.4-9-0.8-13.4-1.3l0.5-4.5c4.4,0.5,8.9,1,13.3,1.3L461.8,936.4z
			 M488.8,937.9c-4.5-0.1-9-0.3-13.5-0.5l0.2-4.5c4.4,0.2,8.9,0.4,13.4,0.5L488.8,937.9z M501.8,686.3c-15.3,1.3-30.8,2.6-46.6,3.9
			c-17.9,1.7-33,4.6-45.3,8.5V626h-2.6c-19.7,48.5-52.5,72.8-98.4,72.8c-39.8,0-71.5-18.1-95.1-54.4c-20.1-31-30.2-67.5-30.2-109.5
			c0-40.7,10.9-77.8,32.8-111.5c25.4-38,57.3-57.1,95.7-57.1c21,0,40,6.7,57.1,20c17,13.3,29.3,30.3,36.7,50.8h3.3V282.5
			c0-20.2-6.6-33.3-19.7-39.5c-8.3-3.9-24-5.9-47.2-5.9v-23.6c21.4-0.9,53.1-2.8,95.1-5.9c5.2-0.9,12.9-2,23-3.3v437.4
			c0,15.7,13.8,23.6,41.3,23.6V686.3z M779.1,157.6c3.5,2.9,6.9,5.8,10.3,8.7l-3,3.4c-3.4-2.9-6.8-5.8-10.2-8.7L779.1,157.6z
			 M757.7,141.1c3.7,2.6,7.3,5.3,10.8,8.1l-2.7,3.5c-3.5-2.7-7.1-5.4-10.7-8L757.7,141.1z M735.3,125.9c3.8,2.4,7.6,4.9,11.3,7.4
			l-2.5,3.7c-3.7-2.5-7.4-5-11.2-7.4L735.3,125.9z M712,112.1c3.9,2.2,7.9,4.4,11.7,6.7l-2.3,3.9c-3.8-2.3-7.7-4.5-11.6-6.7
			L712,112.1z M687.9,99.7c4.1,1.9,8.1,3.9,12.1,6l-2.1,4c-4-2-8-4-12-5.9L687.9,99.7z M663.1,88.9c4.2,1.7,8.4,3.4,12.5,5.2
			l-1.8,4.1c-4.1-1.8-8.2-3.5-12.4-5.2L663.1,88.9z M637.7,79.6c4.3,1.4,8.6,2.9,12.8,4.4l-1.5,4.2c-4.2-1.5-8.4-3-12.7-4.4
			L637.7,79.6z M611.8,71.9c4.4,1.2,8.7,2.4,13,3.6l-1.3,4.3c-4.3-1.3-8.6-2.5-12.9-3.6L611.8,71.9z M585.5,65.9
			c4.4,0.9,8.8,1.8,13.2,2.8l-1,4.4c-4.3-1-8.7-1.9-13.1-2.8L585.5,65.9z M558.8,61.5c4.5,0.6,8.9,1.3,13.4,2l-0.7,4.4
			c-4.4-0.7-8.8-1.4-13.2-2L558.8,61.5z M531.9,58.7c4.5,0.3,9,0.7,13.5,1.2l-0.5,4.5c-4.4-0.5-8.9-0.8-13.3-1.2L531.9,58.7z
			 M505,57.5c4.5,0.1,9,0.2,13.5,0.4l-0.2,4.5c-4.4-0.2-8.9-0.3-13.4-0.4L505,57.5z M502.3,938l0-4.5c4.5,0,8.9-0.1,13.4-0.3
			l0.2,4.5C511.3,937.9,506.8,938,502.3,938z M529.3,937l-0.3-4.5c4.5-0.3,8.9-0.7,13.3-1.1l0.4,4.5
			C538.3,936.3,533.8,936.7,529.3,937z M556.2,934.4l-0.6-4.5c4.4-0.6,8.8-1.2,13.2-1.9l0.7,4.4
			C565.1,933.2,560.7,933.8,556.2,934.4z M582.8,930.1l-0.8-4.4c4.4-0.8,8.8-1.7,13.1-2.7l1,4.4
			C591.7,928.4,587.3,929.3,582.8,930.1z M609.2,924.2l-1.1-4.3c4.3-1.1,8.6-2.3,12.9-3.5l1.2,4.3
			C617.9,921.9,613.6,923.1,609.2,924.2z M635.1,916.7l-1.4-4.3c4.2-1.4,8.5-2.8,12.7-4.3l1.5,4.2
			C643.7,913.9,639.4,915.3,635.1,916.7z M660.6,907.6l-1.6-4.2c4.1-1.6,8.2-3.3,12.3-5.1l1.8,4.1
			C668.9,904.3,664.8,906,660.6,907.6z M685.3,897l-1.9-4.1c4-1.9,8-3.8,12-5.8l2,4C693.4,893.1,689.4,895.1,685.3,897z
			 M709.4,884.9l-2.1-3.9c3.9-2.1,7.8-4.3,11.6-6.5l2.3,3.9C717.3,880.5,713.3,882.7,709.4,884.9z M732.7,871.3l-2.4-3.8
			c3.8-2.4,7.5-4.8,11.2-7.2l2.5,3.7C740.3,866.4,736.5,868.9,732.7,871.3z M755.1,856.3l-2.6-3.6c3.6-2.6,7.2-5.2,10.8-7.9l2.7,3.6
			C762.4,851,758.8,853.7,755.1,856.3z M776.6,839.9l-2.8-3.5c3.5-2.8,6.9-5.7,10.3-8.6l2.9,3.4
			C783.5,834.2,780.1,837.1,776.6,839.9z M797,822.3l-3-3.3c3.3-3,6.5-6.1,9.7-9.2l3.1,3.2C803.6,816.2,800.3,819.3,797,822.3z
			 M611.1,589.1c9.9,26.2,28.4,39.4,55.7,39.4c19.3,0,33.1-5.2,41.2-15.6c8.1-10.4,13.1-23.9,14.8-40.5h84.2
			c-1.9,25.1-11,48.8-27.2,71.2c-25.9,36.1-64.2,54.1-115,54.1c-50.8,0-88.1-15-112.1-45.1c-23.9-30.1-35.9-69.1-35.9-117.1
			c0-54.1,13.2-96.2,39.7-126.3c26.5-30.1,63-45.1,109.5-45.1c39.6,0,72,8.9,97.2,26.6c25.2,17.8,40.1,49.1,44.8,94h-84.5
			c-1.5-11.8-5.5-22.4-11.9-31.8c-9.3-12.7-23.7-19.1-43.2-19.1c-27.9,0-46.9,13.8-57.1,41.4c-5.4,14.6-8.1,34.1-8.1,58.3
			C602.9,556.5,605.6,575.1,611.1,589.1z M806,187.9c-3.2-3.1-6.4-6.2-9.6-9.2l3-3.3c3.3,3.1,6.6,6.2,9.8,9.3L806,187.9z
			 M816.4,803.5l-3.2-3.1c3.1-3.2,6.1-6.5,9.1-9.8l3.3,3C822.6,796.9,819.5,800.2,816.4,803.5z M824.4,207.3c-3-3.3-6-6.6-9.1-9.8
			l3.2-3.1c3.1,3.3,6.2,6.6,9.2,9.9L824.4,207.3z M834.5,783.5l-3.4-2.9c2.9-3.4,5.7-6.8,8.5-10.3l3.5,2.8
			C840.3,776.6,837.4,780,834.5,783.5z M841.6,227.7c-2.8-3.5-5.6-6.9-8.4-10.4l3.4-2.9c2.9,3.4,5.7,6.9,8.5,10.5L841.6,227.7z
			 M939.2,473.4l-4.5,0.2c-0.2-4.5-0.6-8.9-0.9-13.3l4.5-0.4C938.6,464.4,938.9,468.9,939.2,473.4z M936.9,446.5l-4.4,0.5
			c-0.5-4.4-1.1-8.9-1.8-13.3l4.4-0.7C935.8,437.5,936.3,442,936.9,446.5z M932.9,419.7l-4.4,0.8c-0.8-4.4-1.6-8.8-2.6-13.1l4.4-0.9
			C931.3,410.9,932.1,415.3,932.9,419.7z M927.3,393.3l-4.4,1.1c-1-4.3-2.2-8.6-3.4-12.9l4.3-1.2
			C925.1,384.6,926.3,388.9,927.3,393.3z M916,354.4c1.5,4.2,2.9,8.5,4.2,12.8l-4.3,1.3c-1.3-4.3-2.7-8.5-4.2-12.7L916,354.4z
			 M906.4,329.2c1.7,4.1,3.4,8.3,5,12.5l-4.2,1.6c-1.6-4.2-3.2-8.3-4.9-12.4L906.4,329.2z M851.4,762.4l-3.6-2.7
			c2.7-3.6,5.3-7.2,7.9-10.8l3.7,2.6C856.8,755.2,854.1,758.8,851.4,762.4z M857.5,249.2c-2.5-3.7-5.1-7.3-7.8-10.8l3.6-2.7
			c2.7,3.6,5.3,7.3,7.9,11L857.5,249.2z M867,740.3l-3.7-2.5c2.5-3.7,4.9-7.5,7.2-11.3l3.8,2.4C871.9,732.8,869.5,736.5,867,740.3z
			 M872.1,271.6c-2.3-3.8-4.7-7.6-7.1-11.3l3.8-2.4c2.4,3.8,4.8,7.6,7.2,11.4L872.1,271.6z M881.3,717.3l-3.9-2.2
			c2.2-3.9,4.4-7.8,6.5-11.7l3.9,2.1C885.7,709.5,883.5,713.4,881.3,717.3z M885.3,294.8c-2.1-3.9-4.2-7.8-6.4-11.7l3.9-2.2
			c2.2,3.9,4.4,7.8,6.5,11.8L885.3,294.8z M894,693.5l-4-2c2-4,3.9-8,5.8-12.1l4.1,1.9C898,685.4,896,689.4,894,693.5z M897,318.7
			c-1.8-4-3.7-8.1-5.7-12.1l4-2c2,4,3.9,8.1,5.7,12.2L897,318.7z M905.3,668.8l-4.1-1.7c1.7-4.1,3.4-8.3,5-12.4l4.2,1.6
			C908.8,660.5,907.1,664.7,905.3,668.8z M915.1,643.6l-4.2-1.5c1.5-4.2,2.9-8.5,4.3-12.7l4.3,1.4C918,635,916.6,639.3,915.1,643.6z
			 M923.3,617.8l-4.3-1.2c1.2-4.3,2.4-8.6,3.4-12.9l4.4,1.1C925.6,609.1,924.5,613.5,923.3,617.8z M929.8,591.6l-4.4-0.9
			c0.9-4.3,1.8-8.7,2.6-13.1l4.4,0.8C931.6,582.8,930.7,587.2,929.8,591.6z M934.7,565l-4.4-0.7c0.7-4.4,1.3-8.8,1.8-13.3l4.4,0.5
			C936,556.1,935.4,560.6,934.7,565z M938,538.2l-4.5-0.4c0.4-4.4,0.7-8.9,1-13.3l4.5,0.3C938.7,529.2,938.4,533.7,938,538.2z
			 M939.6,511.3l-4.5-0.1c0.1-4.4,0.2-8.9,0.2-13.4c0-3.6,0-7.2-0.1-10.8l4.5-0.1c0.1,3.6,0.1,7.2,0.1,10.9
			C939.8,502.3,939.7,506.8,939.6,511.3z"/>
	</g>
</g>
</svg>
