<?xml version="1.0" encoding="utf-8"?>
<!-- Generator: Adobe Illustrator 18.0.0, SVG Export Plug-In . SVG Version: 6.00 Build 0)  -->
<!DOCTYPE svg PUBLIC "-//W3C//DTD SVG 1.1//EN" "http://www.w3.org/Graphics/SVG/1.1/DTD/svg11.dtd">
<svg version="1.1" id="Layer_1" xmlns="http://www.w3.org/2000/svg" xmlns:xlink="http://www.w3.org/1999/xlink" x="0px" y="0px"
	 viewBox="0 0 1246.5 1242.9" enable-background="new 0 0 1246.5 1242.9" xml:space="preserve">
<g>
	<path fill="#F2F2F2" d="M404.6,489.2c-63.9,0-95.8,59.2-95.8,177.7c0,120.1,30.8,180.1,92.5,180.1c36.6,0,64.7-22.6,84.3-68
		c14.7-34.4,22.1-72.9,22.1-115.5c0-43.7-6.6-81.1-19.7-112.2C470.1,510,442.3,489.2,404.6,489.2z"/>
	<path fill="#F2F2F2" d="M1246.1,606.8c-15.8-12.2-26.8-30.4-29.3-51.8c-2.5-21.6,4.3-42.2,17.1-57.8c-4.7-23-10.8-45.5-17.9-67.5
		c-28.2-8.6-50.1-33.2-53.8-64.4c-1.8-15.3,1.1-30,7.4-42.8c-10.4-18.9-21.8-37.2-34.1-54.8c-38.9,0.6-72.7-28.3-77.3-67.8
		c-0.9-7.8-0.6-15.5,0.8-22.9c-15.1-14.7-30.9-28.7-47.4-41.9c-2.3,0.5-4.7,0.9-7.1,1.2c-40.3,4.7-76.8-22.7-84.2-62
		c-16.2-8.8-33-16.9-50.1-24.3c-8.7,5-18.5,8.3-29.1,9.6c-34.1,4-65.6-15.1-78.9-44.8c-18.7-4.3-37.8-7.7-57.1-10.2
		c-11.9,12.6-28.1,21.2-46.7,23.4c-27.1,3.2-52.5-8.3-68.5-28c-19.4,1-38.5,3-57.3,5.7c-10,18-27.1,32.1-48.7,37.4
		c-21.8,5.4-43.7,0.7-61-10.9c-21.5,7.3-42.5,15.7-62.8,25.2c-4.4,30-26.4,55.7-57.6,63.4c-15.6,3.8-31.3,2.6-45.3-2.7
		c-16.9,12.3-33.1,25.3-48.7,39.2c6.7,39.2-18,77.6-57.3,87.2c-8.4,2.1-16.8,2.6-25,1.9c-12.2,16.1-23.7,32.9-34.3,50.2
		c1.1,3,2.2,6,2.9,9.2c9.8,40-13.8,80.3-52.9,91.8c-7.8,20.1-14.6,40.6-20.3,61.6c8.2,9.1,14.3,20.2,17.4,32.9
		c8.4,34.4-7.8,69-37.3,85.3C0.7,592.2,0,607.2,0,622.4c0,1.5,0.1,3,0.1,4.5c13.7,10.3,24,25.1,28.5,43c6.3,25.6-1.1,51.3-17.4,69.5
		c4.5,23.9,10.3,47.2,17.5,70c17.6,8.2,32.1,23,39.4,42.6c6.7,17.9,6.2,36.7,0,53.3c10.7,21,22.5,41.3,35.4,60.7
		c30.4,0.7,58.8,19.6,70.1,49.8c5.1,13.7,6,27.8,3.4,41.2c14.5,14.9,29.7,29,45.5,42.4c0,0,0.1,0,0.1,0
		c39.7-14.8,83.9,5.4,98.7,45.1c3.2,8.5,4.6,17.2,4.8,25.7c17,9.2,34.4,17.6,52.3,25.3c5.3-3.8,11.2-7,17.6-9.4
		c39.7-14.8,83.9,5.4,98.7,45.1c0.1,0.4,0.2,0.8,0.4,1.2c23.3,4.9,47.1,8.4,71.3,10.6c14-18.1,35.9-29.9,60.6-29.9
		c24.5,0,46.2,11.5,60.2,29.3c21-2.1,41.6-5.3,61.9-9.5c10.3-30.2,38.9-52,72.6-52c17.1,0,32.8,5.7,45.6,15.1
		c18.6-7.9,36.7-16.7,54.3-26.3c2-40.6,35.4-72.9,76.5-72.9c8.6,0,16.8,1.5,24.4,4c15.8-13.2,30.9-27.2,45.3-41.9
		c-0.3-2.7-0.4-5.4-0.4-8.2c0-40.1,30.8-73,70.1-76.4c10.8-15.8,21-32.2,30.3-49c-3.4-8.7-5.4-18.1-5.4-28
		c0-32.9,20.8-60.9,49.9-71.8c5.4-15.7,10.4-31.6,14.6-47.9c-8.5-12.4-13.5-27.3-13.5-43.5c0-25.1,12.2-47.4,30.9-61.4
		c1.3-16.7,2.2-33.5,2.2-50.5C1246.5,617.1,1246.2,612,1246.1,606.8z M613.6,71.9l0.1,5.6c-5.6,0.1-11.1,0.3-16.7,0.6l-0.3-5.6
		C602.3,72.2,608,72,613.6,71.9z M579.9,73.5l0.4,5.6c-5.6,0.5-11.1,1-16.6,1.6l-0.6-5.6C568.7,74.5,574.3,74,579.9,73.5z
		 M546.4,77.2l0.8,5.5c-5.5,0.8-11,1.6-16.5,2.6l-0.9-5.5C535.3,78.9,540.8,78,546.4,77.2z M513.2,82.9l1.1,5.5
		c-5.5,1.1-10.9,2.3-16.3,3.6l-1.3-5.5C502.1,85.3,507.6,84.1,513.2,82.9z M480.3,90.7l1.5,5.4c-5.4,1.5-10.7,3-16,4.6l-1.6-5.3
		C469.5,93.7,474.9,92.2,480.3,90.7z M448.1,100.5l1.8,5.3c-5.3,1.8-10.5,3.6-15.7,5.6l-2-5.2C437.4,104.1,442.7,102.3,448.1,100.5z
		 M416.5,112.2l2.1,5.2c-5.1,2.1-10.2,4.3-15.3,6.5l-2.3-5.1C406.1,116.6,411.3,114.4,416.5,112.2z M385.7,125.9l2.4,5
		c-5,2.4-10,4.9-14.9,7.4l-2.6-5C375.7,130.8,380.7,128.3,385.7,125.9z M355.9,141.4l2.7,4.9c-4.8,2.7-9.7,5.5-14.4,8.3l-2.9-4.8
		C346.1,146.9,351,144.1,355.9,141.4z M327,158.7l3,4.7c-4.7,3-9.3,6.1-13.9,9.2L313,168C317.6,164.8,322.3,161.7,327,158.7z
		 M299.2,177.8l3.3,4.5c-4.5,3.3-8.9,6.6-13.3,10.1l-3.4-4.4C290.2,184.5,294.7,181.1,299.2,177.8z M272.7,198.5l3.6,4.3
		c-4.3,3.6-8.5,7.2-12.7,10.9l-3.7-4.2C264.1,205.7,268.4,202.1,272.7,198.5z M247.4,220.8l3.8,4.1c-4.1,3.8-8.1,7.7-12,11.6l-4-4
		C239.3,228.6,243.3,224.7,247.4,220.8z M102.8,445.8l5.3,1.8c-1.8,5.3-3.5,10.6-5.1,15.9l-5.4-1.6
		C99.2,456.5,101,451.1,102.8,445.8z M93,478.1l5.4,1.5c-1.5,5.4-2.8,10.8-4.1,16.2l-5.5-1.3C90.1,489,91.5,483.5,93,478.1z
		 M85.2,511l5.5,1.1c-1.1,5.5-2.1,10.9-3.1,16.4l-5.5-0.9C83,522,84.1,516.5,85.2,511z M79.5,544.2L85,545c-0.8,5.5-1.5,11-2.1,16.6
		l-5.6-0.6C78,555.3,78.7,549.7,79.5,544.2z M75.8,577.7l5.6,0.4c-0.4,5.5-0.8,11.1-1.1,16.7l-5.6-0.3
		C75,588.9,75.4,583.3,75.8,577.7z M74.1,621.5c0-3.4,0-6.7,0.1-10.1l5.6,0.1c-0.1,3.3-0.1,6.6-0.1,10c0,2.2,0,4.5,0,6.7l-5.6,0.1
		C74.1,626,74.1,623.7,74.1,621.5z M74.6,645.1l5.6-0.2c0.2,5.6,0.6,11.1,1,16.7l-5.6,0.4C75.2,656.3,74.8,650.7,74.6,645.1z
		 M77,678.7l5.6-0.6c0.6,5.6,1.2,11.1,2,16.6l-5.6,0.8C78.3,689.9,77.6,684.3,77,678.7z M81.5,712.2l5.5-0.9c0.9,5.5,1.9,11,3,16.4
		l-5.5,1.1C83.5,723.2,82.5,717.7,81.5,712.2z M88.1,745.2l5.5-1.3c1.3,5.4,2.6,10.8,4,16.2l-5.4,1.4
		C90.7,756.2,89.3,750.7,88.1,745.2z M101.7,793.9c-1.8-5.3-3.4-10.7-5-16.1l5.4-1.6c1.6,5.3,3.2,10.7,5,15.9L101.7,793.9z
		 M113.3,825.6c-2.1-5.2-4.1-10.5-6-15.7l5.3-1.9c1.9,5.2,3.9,10.4,6,15.6L113.3,825.6z M113.7,431.8l-5.2-1.9
		c2-5.3,4-10.5,6.1-15.8l5.2,2.1C117.6,421.4,115.6,426.6,113.7,431.8z M126.7,856.4c-2.4-5-4.7-10.2-7-15.3l5.1-2.2
		c2.2,5.1,4.5,10.1,6.9,15.2L126.7,856.4z M126.3,400.8l-5.1-2.3c2.3-5.1,4.7-10.3,7.1-15.3l5,2.4
		C130.9,390.7,128.6,395.7,126.3,400.8z M142,886.4c-2.7-4.9-5.3-9.9-7.9-14.9l5-2.5c2.5,4.9,5.1,9.9,7.8,14.7L142,886.4z
		 M140.8,370.7l-5-2.6c2.6-5,5.3-10,8-14.9l4.9,2.7C146,360.8,143.4,365.7,140.8,370.7z M159.2,915.3c-3-4.7-5.9-9.5-8.8-14.4
		l4.8-2.8c2.8,4.8,5.7,9.5,8.7,14.2L159.2,915.3z M157.1,341.5l-4.8-2.9c2.9-4.8,5.9-9.6,8.9-14.3l4.7,3
		C163,332,160,336.7,157.1,341.5z M178.1,943.2c-3.3-4.5-6.5-9.1-9.7-13.8l4.6-3.1c3.1,4.6,6.3,9.2,9.6,13.7L178.1,943.2z
		 M175.2,313.4l-4.6-3.2c3.2-4.6,6.5-9.2,9.8-13.8l4.5,3.3C181.6,304.3,178.4,308.8,175.2,313.4z M198.6,969.9
		c-3.6-4.3-7.1-8.7-10.5-13.2l4.4-3.4c3.4,4.4,6.9,8.8,10.4,13L198.6,969.9z M195,286.5l-4.4-3.5c3.5-4.4,7-8.8,10.6-13.1l4.3,3.6
		C201.9,277.8,198.4,282.1,195,286.5z M220.8,995.3c-3.8-4.1-7.6-8.3-11.3-12.5l4.2-3.7c3.7,4.2,7.4,8.3,11.2,12.4L220.8,995.3z
		 M216.4,260.8l-4.2-3.7c3.7-4.2,7.5-8.4,11.4-12.5l4.1,3.8C223.8,252.5,220.1,256.7,216.4,260.8z M244.5,1019.3
		c-4.1-3.9-8.1-7.8-12-11.8l4-3.9c3.9,4,7.9,7.9,11.9,11.7L244.5,1019.3z M269.6,1041.8c-4.3-3.6-8.5-7.3-12.7-11.1l3.7-4.2
		c4.1,3.7,8.3,7.4,12.6,11L269.6,1041.8z M296.1,1062.8c-4.5-3.4-9-6.8-13.4-10.3l3.5-4.4c4.4,3.5,8.8,6.9,13.2,10.2L296.1,1062.8z
		 M323.7,1082.1c-4.7-3.1-9.4-6.2-14-9.4l3.2-4.6c4.6,3.2,9.2,6.3,13.8,9.3L323.7,1082.1z M352.6,1099.7c-4.9-2.8-9.8-5.6-14.6-8.6
		l2.9-4.8c4.8,2.9,9.6,5.7,14.4,8.5L352.6,1099.7z M382.5,1115.5c-5.1-2.5-10.1-5-15.1-7.7l2.6-4.9c4.9,2.6,9.9,5.1,14.9,7.6
		L382.5,1115.5z M413.3,1129.4c-5.2-2.2-10.4-4.4-15.5-6.7l2.3-5.1c5.1,2.3,10.2,4.5,15.4,6.7L413.3,1129.4z M444.9,1141.3
		c-5.3-1.8-10.7-3.7-15.9-5.7l2-5.2c5.2,2,10.5,3.9,15.7,5.7L444.9,1141.3z M477.2,1151.4c-5.4-1.5-10.8-3.1-16.2-4.7l1.7-5.3
		c5.3,1.6,10.6,3.2,16,4.7L477.2,1151.4z M509.9,1159.3c-5.5-1.2-11-2.4-16.4-3.7l1.3-5.4c5.4,1.3,10.8,2.5,16.3,3.7L509.9,1159.3z
		 M543.1,1165.2c-5.6-0.8-11.1-1.7-16.6-2.7l1-5.5c5.5,1,11,1.9,16.5,2.7L543.1,1165.2z M576.6,1169.1c-5.6-0.5-11.2-1-16.8-1.7
		l0.6-5.6c5.5,0.6,11.1,1.2,16.6,1.7L576.6,1169.1z M610.3,1171c-5.6-0.1-11.3-0.4-16.8-0.7l0.3-5.6c5.5,0.3,11.1,0.5,16.7,0.7
		L610.3,1171z M626.5,856.9c-19.1,1.6-38.5,3.3-58.1,4.9c-22.4,2.2-41.2,5.7-56.5,10.6v-90.9h-3.3c-24.6,60.6-65.5,90.9-122.8,90.9
		c-49.7,0-89.2-22.6-118.7-68c-25.1-38.8-37.7-84.3-37.7-136.7c0-50.8,13.6-97.2,40.9-139.2c31.7-47.5,71.5-71.2,119.5-71.2
		c26.2,0,49.9,8.3,71.2,25c21.3,16.7,36.6,37.8,45.9,63.5h4.1v-193c0-25.2-8.2-41.6-24.6-49.3c-10.4-4.9-30-7.4-59-7.4v-29.5
		c26.7-1.1,66.3-3.5,118.7-7.4c6.5-1.1,16.1-2.5,28.7-4.1v546.1c0,19.7,17.2,29.5,51.6,29.5V856.9z M972.7,196.8
		c4.4,3.6,8.6,7.2,12.9,10.9l-3.7,4.2c-4.2-3.7-8.4-7.3-12.7-10.8L972.7,196.8z M946,176.1c4.6,3.3,9.1,6.7,13.5,10.1l-3.4,4.4
		c-4.4-3.4-8.9-6.7-13.4-10L946,176.1z M918,157.2c4.8,3,9.5,6.1,14.1,9.3l-3.2,4.6c-4.6-3.1-9.2-6.2-14-9.2L918,157.2z M889,139.9
		c4.9,2.7,9.8,5.5,14.7,8.4l-2.8,4.8c-4.8-2.8-9.6-5.6-14.5-8.3L889,139.9z M858.9,124.5c5.1,2.4,10.1,4.9,15.2,7.5l-2.6,5
		c-4.9-2.5-9.9-5-15-7.4L858.9,124.5z M827.9,111c5.2,2.1,10.4,4.3,15.6,6.5l-2.2,5.1c-5.1-2.2-10.3-4.4-15.4-6.5L827.9,111z
		 M796.2,99.4c5.4,1.8,10.7,3.6,16,5.5l-1.9,5.3c-5.3-1.9-10.5-3.7-15.8-5.5L796.2,99.4z M763.8,89.8c5.4,1.4,10.9,2.9,16.2,4.5
		l-1.6,5.4c-5.3-1.6-10.7-3.1-16.1-4.5L763.8,89.8z M731,82.3c5.5,1.1,11,2.3,16.5,3.5l-1.3,5.5c-5.4-1.2-10.9-2.4-16.3-3.5
		L731,82.3z M697.7,76.7c5.6,0.7,11.1,1.6,16.7,2.5l-0.9,5.5c-5.5-0.9-11-1.7-16.5-2.5L697.7,76.7z M664.2,73.3
		c5.6,0.4,11.2,0.9,16.8,1.5l-0.6,5.6c-5.5-0.6-11.1-1.1-16.6-1.5L664.2,73.3z M630.5,71.8c5.6,0.1,11.3,0.2,16.8,0.5l-0.2,5.6
		c-5.5-0.2-11.1-0.4-16.7-0.5L630.5,71.8z M627.1,1171.1l0-5.6c5.6,0,11.1-0.2,16.7-0.3l0.2,5.6
		C638.4,1171,632.8,1171.1,627.1,1171.1z M660.8,1169.9l-0.4-5.6c5.6-0.4,11.1-0.8,16.6-1.4l0.5,5.6
		C672.1,1169.1,666.5,1169.5,660.8,1169.9z M694.4,1166.6l-0.7-5.6c5.5-0.7,11-1.5,16.5-2.4l0.9,5.5
		C705.6,1165.1,700,1165.9,694.4,1166.6z M727.7,1161.3l-1.1-5.5c5.5-1.1,10.9-2.2,16.4-3.4l1.2,5.5
		C738.7,1159.1,733.2,1160.2,727.7,1161.3z M760.6,1153.9l-1.4-5.4c5.4-1.4,10.8-2.9,16.1-4.4l1.6,5.4
		C771.5,1151.1,766.1,1152.5,760.6,1153.9z M793,1144.6l-1.7-5.3c5.3-1.7,10.6-3.5,15.8-5.4l1.9,5.3
		C803.7,1141,798.4,1142.8,793,1144.6z M824.8,1133.2l-2-5.2c5.2-2,10.3-4.1,15.4-6.3l2.2,5.1C835.2,1129,830,1131.1,824.8,1133.2z
		 M855.6,1119.9l-2.4-5.1c5-2.4,10-4.8,15-7.3l2.5,5C865.8,1115.1,860.7,1117.6,855.6,1119.9z M885.7,1104.8l-2.7-4.9
		c4.9-2.6,9.7-5.4,14.5-8.2l2.8,4.8C895.5,1099.3,890.6,1102.1,885.7,1104.8z M914.8,1087.8l-3-4.8c4.7-2.9,9.4-6,14-9l3.1,4.6
		C924.2,1081.8,919.5,1084.8,914.8,1087.8z M942.8,1069.1l-3.3-4.6c4.5-3.2,9-6.5,13.4-9.9l3.4,4.5
		C951.9,1062.5,947.3,1065.8,942.8,1069.1z M969.6,1048.7l-3.5-4.4c4.3-3.5,8.6-7.1,12.8-10.7l3.6,4.2
		C978.2,1041.6,973.9,1045.2,969.6,1048.7z M995.1,1026.7l-3.8-4.1c4.1-3.8,8.1-7.6,12.1-11.5l3.9,4
		C1003.3,1019,999.2,1022.9,995.1,1026.7z M762.9,735.6c12.3,32.8,35.5,49.1,69.5,49.1c24.1,0,41.3-6.5,51.4-19.5
		c10.1-13,16.3-29.9,18.5-50.6h105.1c-2.4,31.3-13.8,60.9-34,88.9c-32.3,45-80.2,67.6-143.6,67.6c-63.4,0-110.1-18.8-140-56.4
		c-29.9-37.6-44.8-86.3-44.8-146.1c0-67.5,16.5-120.1,49.5-157.7c33-37.6,78.6-56.4,136.7-56.4c49.4,0,89.9,11.1,121.3,33.2
		c31.5,22.2,50.1,61.3,55.9,117.4H903.1c-1.9-14.7-6.9-27.9-14.8-39.7c-11.6-15.9-29.6-23.8-54-23.8c-34.8,0-58.6,17.2-71.3,51.7
		c-6.8,18.3-10.1,42.5-10.1,72.8C752.8,694.8,756.2,718,762.9,735.6z M1006.3,234.6c-4-3.9-8-7.8-12-11.5l3.8-4.1
		c4.1,3.8,8.2,7.7,12.2,11.7L1006.3,234.6z M1019.2,1003.2l-4-3.9c3.9-4,7.7-8.1,11.4-12.2l4.1,3.8
		C1027,995,1023.1,999.1,1019.2,1003.2z M1029.3,258.8c-3.7-4.1-7.5-8.2-11.3-12.3l4.1-3.9c3.9,4.1,7.7,8.2,11.4,12.4L1029.3,258.8z
		 M1041.9,978.2l-4.2-3.6c3.6-4.2,7.2-8.5,10.6-12.9l4.4,3.5C1049.1,969.6,1045.6,973.9,1041.9,978.2z M1050.8,284.3
		c-3.4-4.4-7-8.7-10.5-12.9l4.3-3.6c3.6,4.3,7.2,8.7,10.6,13.1L1050.8,284.3z M1172.6,591l-5.6,0.3c-0.3-5.6-0.7-11.1-1.2-16.6
		l5.6-0.5C1171.9,579.8,1172.3,585.4,1172.6,591z M1169.7,557.4l-5.6,0.6c-0.6-5.6-1.4-11.1-2.2-16.6l5.5-0.8
		C1168.3,546.3,1169.1,551.8,1169.7,557.4z M1164.8,524.1l-5.5,1c-1-5.5-2-11-3.2-16.4l5.5-1.2
		C1162.7,513,1163.8,518.5,1164.8,524.1z M1157.8,491.1l-5.4,1.3c-1.3-5.4-2.7-10.8-4.2-16.2l5.4-1.5
		C1155.1,480.2,1156.5,485.6,1157.8,491.1z M1143.6,442.5c1.8,5.3,3.6,10.6,5.3,16l-5.3,1.7c-1.6-5.3-3.4-10.6-5.2-15.9
		L1143.6,442.5z M1131.7,411.1c2.1,5.2,4.2,10.4,6.2,15.6l-5.2,2c-2-5.2-4-10.3-6.1-15.5L1131.7,411.1z M1063,951.9l-4.5-3.4
		c3.4-4.4,6.6-8.9,9.9-13.5l4.6,3.2C1069.7,942.8,1066.4,947.4,1063,951.9z M1070.6,311.1c-3.2-4.6-6.4-9.1-9.7-13.5l4.5-3.3
		c3.4,4.5,6.6,9.1,9.8,13.7L1070.6,311.1z M1082.5,924.3l-4.7-3.1c3.1-4.6,6.1-9.3,9-14.1l4.8,2.9
		C1088.6,914.9,1085.6,919.6,1082.5,924.3z M1088.9,339c-2.9-4.8-5.9-9.5-8.9-14.1l4.7-3c3,4.7,6,9.4,9,14.2L1088.9,339z
		 M1100.3,895.6l-4.9-2.8c2.8-4.8,5.5-9.7,8.1-14.6l4.9,2.6C1105.8,885.8,1103.1,890.7,1100.3,895.6z M1105.3,368
		c-2.6-4.9-5.3-9.8-8-14.6l4.9-2.8c2.8,4.9,5.5,9.8,8.1,14.8L1105.3,368z M1116.2,865.8l-5-2.5c2.5-5,4.9-10,7.2-15.1l5.1,2.3
		C1121.2,855.7,1118.7,860.7,1116.2,865.8z M1119.9,397.9c-2.3-5.1-4.6-10.1-7.1-15.1l5-2.5c2.5,5,4.8,10.1,7.2,15.2L1119.9,397.9z
		 M1130.3,835.1l-5.2-2.2c2.2-5.1,4.3-10.3,6.3-15.5l5.2,2C1134.6,824.7,1132.5,829.9,1130.3,835.1z M1142.5,803.5l-5.3-1.9
		c1.8-5.2,3.6-10.6,5.3-15.9l5.3,1.7C1146.2,792.9,1144.4,798.2,1142.5,803.5z M1152.7,771.3l-5.4-1.5c1.5-5.3,3-10.7,4.3-16.1
		l5.4,1.4C1155.7,760.5,1154.2,765.9,1152.7,771.3z M1160.9,738.6l-5.5-1.2c1.2-5.4,2.3-10.9,3.3-16.4l5.5,1
		C1163.2,727.6,1162.1,733.1,1160.9,738.6z M1167,705.5l-5.5-0.9c0.8-5.5,1.6-11,2.3-16.5l5.6,0.7
		C1168.6,694.3,1167.9,699.9,1167,705.5z M1171.1,672l-5.6-0.5c0.5-5.5,0.9-11.1,1.3-16.6l5.6,0.3
		C1172,660.8,1171.6,666.4,1171.1,672z M1173.1,638.3l-5.6-0.2c0.2-5.5,0.3-11.1,0.3-16.7c0-4.5-0.1-9-0.2-13.4l5.6-0.1
		c0.1,4.5,0.2,9,0.2,13.6C1173.4,627.1,1173.3,632.7,1173.1,638.3z"/>
</g>
</svg>
